<?xml version="1.0" encoding="UTF-8"?>
<svg width="48px" height="52px" viewBox="0 0 48 52" version="1.1" xmlns="http://www.w3.org/2000/svg" xmlns:xlink="http://www.w3.org/1999/xlink">
    <title>caegory7</title>
    <g id="Page-1" stroke="none" stroke-width="1" fill="none" fill-rule="evenodd" stroke-linecap="round" stroke-linejoin="round">
        <g id="Owner-App-Preferences" transform="translate(-49.000000, -560.000000)" stroke="#000000" stroke-width="3.3">
            <g id="caegory7" transform="translate(51.000000, 562.000000)">
                <path d="M19.0150664,24.3968 C19.4110813,30.9802667 26.5308779,27.4346667 26.5308779,27.4346667 C26.2690787,28.6894714 26.5283069,29.9975434 27.2483203,31.0548982 C27.9683337,32.112253 29.0864344,32.8268175 30.3427856,33.0325333 C30.3427856,33.0325333 33.7565607,32.0448 33.3605459,25.4613333 C33.011121,19.7013333 26.134863,20.8490667 26.134863,20.8490667" id="Path"></path>
                <path d="M19.9256888,27.2128 L18.4432803,27.5413333 C11.8198657,29.2523003 5.91587189,33.0582841 1.59888352,38.4" id="Path"></path>
                <path d="M0.0169418122,22.3893333 C12.087983,14.8992 20.1184019,12.128 26.3381647,11.0016 L27.1852553,6.4 L32.7972306,10.6794667 C35.8910661,10.7508073 38.691735,12.540811 40.073739,15.3301333 L43.1804438,17.0645333 C43.9066532,17.469347 44.2010154,18.369167 43.8559985,19.1296 L42.1067564,22.9696 C41.8756968,23.4753134 41.4014845,23.8247174 40.8530623,23.8933333 C38.2436674,24.2700684 35.5908161,24.21675 32.9984146,23.7354667" id="Path"></path>
                <path d="M13.8605201,8 C12.405642,3.09333333 10.2921509,0 7.94147445,0 C3.55566283,0 0,10.7456 0,24 C0,37.2544 3.55566283,48 7.94147445,48 C10.7728748,48 13.256968,43.52 14.6631384,36.7829333" id="Path"></path>
            </g>
        </g>
    </g>
</svg>