<?xml version="1.0" encoding="UTF-8"?>
<svg width="47px" height="47px" viewBox="0 0 47 47" version="1.1" xmlns="http://www.w3.org/2000/svg" xmlns:xlink="http://www.w3.org/1999/xlink">
    <title>category6</title>
    <g id="Page-1" stroke="none" stroke-width="1" fill="none" fill-rule="evenodd">
        <g id="Owner-App-Preferences" transform="translate(-283.000000, -395.000000)" fill="#0C2340" fill-rule="nonzero">
            <g id="category6" transform="translate(283.000000, 395.000000)">
                <path d="M4.14705882,19.3529412 L4.95711765,19.3529412 L7.31541176,21.714 C7.57475296,21.9739976 7.92688934,22.1201181 8.29411765,22.1201181 C8.66134596,22.1201181 9.01348233,21.9739976 9.27282353,21.714 L11.6311176,19.3529412 L20.7352941,19.3529412 C23.0256515,19.3529412 24.8823529,17.4962397 24.8823529,15.2058824 L24.8823529,13.8235294 L35.3688824,13.8235294 L37.7271765,16.1845882 C37.9865177,16.4445859 38.338654,16.5907063 38.7058824,16.5907063 C39.0731107,16.5907063 39.425247,16.4445859 39.6845882,16.1845882 L42.0428824,13.8235294 L42.8529412,13.8235294 C45.1432985,13.8235294 47,11.9668279 47,9.67647059 L47,4.14705882 C47,1.85670148 45.1432985,0 42.8529412,0 L20.7352941,0 C18.4449368,0 16.5882353,1.85670148 16.5882353,4.14705882 L16.5882353,5.52941176 L4.14705882,5.52941176 C1.85670148,5.52941176 0,7.38611324 0,9.67647059 L0,15.2058824 C0,17.4962397 1.85670148,19.3529412 4.14705882,19.3529412 Z M19.3529412,4.14705882 C19.3529412,3.38360638 19.9718417,2.76470588 20.7352941,2.76470588 L42.8529412,2.76470588 C43.6163936,2.76470588 44.2352941,3.38360638 44.2352941,4.14705882 L44.2352941,9.67647059 C44.2352941,10.439923 43.6163936,11.0588235 42.8529412,11.0588235 L41.4705882,11.0588235 C41.1037149,11.0581683 40.7516285,11.2033791 40.4918824,11.4624706 L38.7058824,13.2512353 L36.9198824,11.4624706 C36.6601362,11.2033791 36.3080498,11.0581683 35.9411765,11.0588235 L24.8823529,11.0588235 L24.8823529,9.67647059 C24.8823529,7.38611324 23.0256515,5.52941176 20.7352941,5.52941176 L19.3529412,5.52941176 L19.3529412,4.14705882 Z M2.76470588,9.67647059 C2.76470588,8.91301814 3.38360638,8.29411765 4.14705882,8.29411765 L20.7352941,8.29411765 C21.4987466,8.29411765 22.1176471,8.91301814 22.1176471,9.67647059 L22.1176471,15.2058824 C22.1176471,15.9693348 21.4987466,16.5882353 20.7352941,16.5882353 L11.0588235,16.5882353 C10.6919502,16.5875801 10.3398638,16.7327908 10.0801176,16.9918824 L8.29411765,18.7806471 L6.50811765,16.9918824 C6.2483715,16.7327908 5.89628509,16.5875801 5.52941176,16.5882353 L4.14705882,16.5882353 C3.38360638,16.5882353 2.76470588,15.9693348 2.76470588,15.2058824 L2.76470588,9.67647059 Z M26.2647059,6.91176471 C26.2647059,6.14831226 26.8836064,5.52941176 27.6470588,5.52941176 L40.0882353,5.52941176 C40.8516877,5.52941176 41.4705882,6.14831226 41.4705882,6.91176471 C41.4705882,7.67521715 40.8516877,8.29411765 40.0882353,8.29411765 L27.6470588,8.29411765 C26.8836064,8.29411765 26.2647059,7.67521715 26.2647059,6.91176471 Z M5.52941176,12.4411765 C5.52941176,11.677724 6.14831226,11.0588235 6.91176471,11.0588235 L7.60294118,11.0588235 C8.36639362,11.0588235 8.98529412,11.677724 8.98529412,12.4411765 C8.98529412,13.2046289 8.36639362,13.8235294 7.60294118,13.8235294 L6.91176471,13.8235294 C6.14831226,13.8235294 5.52941176,13.2046289 5.52941176,12.4411765 Z M10.7132353,12.4411765 C10.7132353,11.677724 11.3321358,11.0588235 12.0955882,11.0588235 L12.7867647,11.0588235 C13.5502172,11.0588235 14.1691176,11.677724 14.1691176,12.4411765 C14.1691176,13.2046289 13.5502172,13.8235294 12.7867647,13.8235294 L12.0955882,13.8235294 C11.3321358,13.8235294 10.7132353,13.2046289 10.7132353,12.4411765 Z M15.8970588,12.4411765 C15.8970588,11.677724 16.5159593,11.0588235 17.2794118,11.0588235 L17.9705882,11.0588235 C18.7340407,11.0588235 19.3529412,11.677724 19.3529412,12.4411765 C19.3529412,13.2046289 18.7340407,13.8235294 17.9705882,13.8235294 L17.2794118,13.8235294 C16.5159593,13.8235294 15.8970588,13.2046289 15.8970588,12.4411765 Z M4.14705882,47 L42.8529412,47 C45.1432985,47 47,45.1432985 47,42.8529412 C47,40.5625838 45.1432985,38.7058824 42.8529412,38.7058824 L42.8529412,37.3235294 C42.8446651,33.7085113 40.817493,30.4010199 37.6,28.7529412 C39.8361992,26.8903511 40.6660991,23.8265437 39.6756888,21.0899552 C38.6852786,18.3533667 36.0867676,16.5303499 33.1764706,16.5303499 C30.2661735,16.5303499 27.6676626,18.3533667 26.6772524,21.0899552 C25.6868421,23.8265437 26.5167419,26.8903511 28.7529412,28.7529412 C25.5354482,30.4010199 23.508276,33.7085113 23.5,37.3235294 L23.5,37.9483529 C22.5764966,36.3931383 21.2355865,35.1278939 19.6294118,34.2961765 C21.865611,32.4335864 22.6955108,29.369779 21.7051006,26.6331905 C20.7146903,23.896602 18.1161794,22.0735852 15.2058824,22.0735852 C12.2955853,22.0735852 9.69707438,23.896602 8.70666413,26.6331905 C7.71625388,29.369779 8.54615371,32.4335864 10.7823529,34.2961765 C8.91434705,35.2626861 7.41126944,36.8104 6.49982353,38.7058824 L4.14705882,38.7058824 C1.85670148,38.7058824 0,40.5625838 0,42.8529412 C0,45.1432985 1.85670148,47 4.14705882,47 Z M33.1764706,19.3529412 C35.4668279,19.3529412 37.3235294,21.2096427 37.3235294,23.5 C37.3235294,25.7903573 35.4668279,27.6470588 33.1764706,27.6470588 C30.8861132,27.6470588 29.0294118,25.7903573 29.0294118,23.5 C29.0294118,21.2096427 30.8861132,19.3529412 33.1764706,19.3529412 L33.1764706,19.3529412 Z M26.2647059,37.3235294 C26.2647059,33.5062672 29.3592083,30.4117647 33.1764706,30.4117647 C36.9937328,30.4117647 40.0882353,33.5062672 40.0882353,37.3235294 L40.0882353,38.7058824 L26.2647059,38.7058824 L26.2647059,37.3235294 Z M42.8529412,41.4705882 C43.6163936,41.4705882 44.2352941,42.0894887 44.2352941,42.8529412 C44.2352941,43.6163936 43.6163936,44.2352941 42.8529412,44.2352941 L24.8823529,44.2352941 C24.9286187,43.3113287 24.8813786,42.3850528 24.7413529,41.4705882 L42.8529412,41.4705882 Z M15.2058824,24.8823529 C17.4962397,24.8823529 19.3529412,26.7390544 19.3529412,29.0294118 C19.3529412,31.3197691 17.4962397,33.1764706 15.2058824,33.1764706 C12.915525,33.1764706 11.0588235,31.3197691 11.0588235,29.0294118 C11.0588235,26.7390544 12.915525,24.8823529 15.2058824,24.8823529 Z M8.29411765,42.8529412 C8.29411765,39.0356789 11.3886201,35.9411765 15.2058824,35.9411765 C19.0231446,35.9411765 22.1176471,39.0356789 22.1176471,42.8529412 L22.1176471,44.2352941 L8.29411765,44.2352941 L8.29411765,42.8529412 Z M4.14705882,41.4705882 L5.67041176,41.4705882 C5.53122465,42.385138 5.48398889,43.3113293 5.52941176,44.2352941 L4.14705882,44.2352941 C3.38360638,44.2352941 2.76470588,43.6163936 2.76470588,42.8529412 C2.76470588,42.0894887 3.38360638,41.4705882 4.14705882,41.4705882 Z" id="Shape"></path>
            </g>
        </g>
    </g>
</svg>