<?xml version="1.0" encoding="UTF-8"?>
<svg width="44px" height="44px" viewBox="0 0 44 44" version="1.1" xmlns="http://www.w3.org/2000/svg" xmlns:xlink="http://www.w3.org/1999/xlink">
    <title>category8</title>
    <g id="Page-1" stroke="none" stroke-width="1" fill="none" fill-rule="evenodd" stroke-linecap="round" stroke-linejoin="round">
        <g id="Owner-App-Preferences" transform="translate(-164.000000, -569.000000)" stroke="#000000" stroke-width="3">
            <g id="category8" transform="translate(166.000000, 571.000000)">
                <path d="M38.5874598,6.22734399 C37.6739368,5.31461493 36.4289135,4.81200658 35.137758,4.83472031 C35.1676996,2.75212333 33.8417952,0.89131729 31.8635601,0.23963273 C29.8853251,-0.412051831 27.7130506,0.296358694 26.4993302,1.98898668 C25.2856099,3.68161467 25.3116221,5.9663346 26.5635651,7.63089021 L7.6475486,26.5469068 C5.98268719,25.2873065 3.69212225,25.2568375 1.99434548,26.4717079 C0.296568714,27.6865784 -0.413807264,29.8644173 0.241110018,31.8466987 C0.8960273,33.8289801 2.76401605,35.1549643 4.8513787,35.1192792 C4.81440559,37.2043746 6.13635966,39.0717189 8.11525637,39.7297142 C10.0941531,40.3877095 12.2710769,39.6837636 13.490037,37.9916861 C14.7089971,36.2996086 14.6873109,34.0118003 13.4364941,32.3431339 L32.3597923,13.4198357 C34.362453,14.931619 37.1941467,14.632411 38.8366279,12.7354677 C40.4791091,10.8385243 40.370172,7.99315138 38.5874598,6.22734399 Z" id="Path"></path>
            </g>
        </g>
    </g>
</svg>