<?xml version="1.0" encoding="UTF-8"?>
<svg width="38px" height="38px" viewBox="0 0 38 38" version="1.1" xmlns="http://www.w3.org/2000/svg" xmlns:xlink="http://www.w3.org/1999/xlink">
    <title>category4</title>
    <g id="Page-1" stroke="none" stroke-width="1" fill="none" fill-rule="evenodd">
        <g id="Owner-App-Preferences" transform="translate(-51.000000, -407.000000)" fill="#0C2340" fill-rule="nonzero">
            <g id="category4" transform="translate(51.000000, 407.000000)">
                <path d="M19,0 C8.50658975,0 0,8.50658975 0,19 C0,29.4934102 8.50658975,38 19,38 C29.4934102,38 38,29.4934102 38,19 C37.9876825,8.51169605 29.488304,0.0123174572 19,0 Z M4.69411765,27.6908235 C5.26861768,25.8768413 6.93378338,24.6295397 8.83611765,24.5882353 C8.83611765,24.5882353 8.79811765,24.5882353 9.02835294,24.5882353 C10.3031245,24.6167561 11.5034479,25.1945085 12.3209412,26.1730588 C11.5805474,27.37777 11.1847026,28.7624535 11.1764706,30.1764706 L11.1764706,33.8155294 C8.50508012,32.3928583 6.26594704,30.2772636 4.69411765,27.6908235 L4.69411765,27.6908235 Z M5.58823488,19 C5.58885742,17.1597084 7.07264402,15.6638479 8.91287011,15.6483118 C10.7530962,15.6327757 12.2619271,17.1033711 12.2936202,18.9433899 C12.3253133,20.7834086 10.8680225,22.3050935 9.02835294,22.3529412 C9.01494118,22.3529412 9.07529412,22.3529412 8.83611765,22.3529412 C7.02549267,22.2961806 5.58734583,20.8115142 5.58823488,19 L5.58823488,19 Z M13.6822353,21.9215294 C14.1038987,22.485993 14.6115236,22.9807953 15.1865882,23.3878824 C14.6715015,23.6742565 14.1907827,24.0184841 13.7537647,24.4138824 C13.3556553,23.9977381 12.9047628,23.6355212 12.4125882,23.3364706 C12.9128808,22.9401296 13.3422045,22.4616756 13.6822353,21.9215294 L13.6822353,21.9215294 Z M29.1638824,22.3529412 C28.9247059,22.3529412 28.9850588,22.3529412 28.9716471,22.3529412 C27.1220751,22.3003892 25.6575921,20.7721392 25.6838707,18.9220074 C25.7101494,17.0718757 27.2174463,15.5858358 29.0677647,15.5858358 C30.9180831,15.5858358 32.42538,17.0718757 32.4516587,18.9220074 C32.4779373,20.7721392 31.0134543,22.3003892 29.1638824,22.3529412 L29.1638824,22.3529412 Z M25.5762353,23.3476471 C25.083553,23.6459728 24.6325699,24.0082626 24.2350588,24.4250588 C23.7980408,24.0296606 23.3173221,23.685433 22.8022353,23.3990588 C23.3772999,22.9919718 23.8849249,22.4971695 24.3065882,21.9327059 C24.6469049,22.4694175 25.0762782,22.9441471 25.5762353,23.3364706 L25.5762353,23.3476471 Z M19,22.3529412 C16.5309623,22.3529412 14.5294118,20.3513906 14.5294118,17.8823529 C14.5294118,15.4133152 16.5309623,13.4117647 19,13.4117647 C21.4690377,13.4117647 23.4705882,15.4133152 23.4705882,17.8823529 C23.4705882,20.3513906 21.4690377,22.3529412 19,22.3529412 Z M13.3849412,34.7767059 C13.3973047,34.7342695 13.4062742,34.6909172 13.4117647,34.6470588 L13.4117647,30.1764706 C13.4117647,27.0901735 15.9137029,24.5882353 19,24.5882353 C22.0862971,24.5882353 24.5882353,27.0901735 24.5882353,30.1764706 L24.5882353,34.6470588 C24.5937258,34.6909172 24.6026953,34.7342695 24.6150588,34.7767059 C20.987588,36.094072 17.012412,36.094072 13.3849412,34.7767059 L13.3849412,34.7767059 Z M26.8235294,33.8155294 L26.8235294,30.1764706 C26.817277,28.7593638 26.4213446,27.3712806 25.6790588,26.1641176 C26.4974915,25.1879562 27.6980333,24.6133587 28.9716471,24.5882353 C29.1951765,24.5882353 29.1527059,24.5882353 29.1638824,24.5882353 C31.0668159,24.6298577 32.7321629,25.8781939 33.3058824,27.6930588 C31.7339129,30.2788164 29.4947647,32.3936532 26.8235294,33.8155294 L26.8235294,33.8155294 Z M34.5576471,25.2163529 C34.0254638,24.4545079 33.3402997,23.8119763 32.5458824,23.3297647 C34.1668267,22.0356013 34.9348521,19.9482505 34.5392652,17.9121192 C34.1436782,15.875988 32.6499492,14.228059 30.6623442,13.6349775 C28.6747391,13.0418961 26.5222095,13.6018181 25.0755294,15.0882353 C23.9917845,12.7053507 21.6155199,11.1756022 18.9977647,11.1756022 C16.3800095,11.1756022 14.003745,12.7053507 12.92,15.0882353 C11.4723309,13.6068692 9.3224846,13.0506567 7.33802794,13.6440562 C5.35357128,14.2374557 3.86196729,15.8825481 3.46515021,17.9154592 C3.06833313,19.9483702 3.83178332,22.0336413 5.44741176,23.3297647 C4.65245581,23.8103236 3.96711737,24.4522573 3.43564706,25.2141176 C0.625462707,18.214682 2.83550538,10.2003401 8.83602953,5.63055401 C14.8365537,1.06076788 23.1500346,1.06076788 29.1505587,5.63055401 C35.1510829,10.2003401 37.3611255,18.214682 34.5509412,25.2141176 L34.5576471,25.2163529 Z" id="Shape"></path>
            </g>
        </g>
    </g>
</svg>