<?xml version="1.0" encoding="UTF-8"?>
<svg width="39px" height="39px" viewBox="0 0 39 39" version="1.1" xmlns="http://www.w3.org/2000/svg" xmlns:xlink="http://www.w3.org/1999/xlink">
    <title>category5</title>
    <g id="Page-1" stroke="none" stroke-width="1" fill="none" fill-rule="evenodd">
        <g id="Owner-App-Preferences" transform="translate(-168.000000, -408.000000)" fill="#0C2340" fill-rule="nonzero">
            <g id="category5" transform="translate(168.000000, 408.000000)">
                <path d="M24.7350858,37.2272727 L20.0084965,29.7115185 C20.8581568,29.0769795 21.8279653,28.6218264 22.8589865,28.3737188 C21.821614,28.6195683 20.8454237,29.0748146 19.9903261,29.7115185 L24.7350858,37.2272727 Z M12.3201233,25.836669 L12.1247909,25.8094134 C12.4518591,25.8412116 12.7834699,25.8616534 13.1196233,25.8684673 L12.3269372,25.8843665 L12.3201233,25.836669 Z M37.2272727,24.7350852 L18.6616117,24.7146435 C21.343804,23.4576378 23.4951033,21.2926615 24.7350858,18.6025568 C23.499665,21.2914598 21.3463482,23.4520242 18.6616117,24.696473 L37.2272727,24.7350852 Z M13.3785522,21.3281415 C11.6343577,21.331072 9.93788503,20.7586622 8.55202548,19.699598 C10.5151438,21.1940946 13.0602557,21.6939127 15.4427673,21.0528263 C17.8252789,20.4117399 19.7758993,18.7022099 20.7239582,16.4243736 C19.4967215,19.3974894 16.5949918,21.3346677 13.3785522,21.3281415 L13.3785522,21.3281415 Z M0.886364482,13.3967216 L0.886364482,13.3967216 C0.883853701,6.49349546 6.47533008,0.893885766 13.3785522,0.886363636 L13.3785522,0.886363636 C6.48242138,0.893874405 0.893876096,6.48241995 0.886364482,13.3785511 L0.886364482,13.3967216 Z M25.8707392,13.1377926 C25.8707392,12.8016392 25.8434835,12.4722997 25.8116852,12.1406889 L25.8389409,12.3360213 L25.8866383,12.3360213 L25.8707392,13.1377926 Z" id="Shape"></path>
                <path d="M13.6872621,0 C6.51197108,0.0603675287 0.579726217,5.59202128 0.0396662811,12.7260045 C-0.500393655,19.8599876 4.53186778,26.2167674 11.6167794,27.3502762 C12.6875263,34.3136193 18.8702001,39.3391867 25.9267672,38.9821059 C32.9833344,38.6250251 38.6239102,33.0011702 38.9820527,25.9655216 C39.3401952,18.929873 34.2996856,12.7655272 27.315639,11.6979544 C26.2931427,4.9783722 20.5039399,0.00919428829 13.6872621,0 Z M13.6872621,25.2308821 C7.33450657,25.2308821 2.18458069,20.0962227 2.18458069,13.7622993 C2.18458069,7.42837597 7.33450657,2.29371656 13.6872621,2.29371656 C20.0400176,2.29371656 25.1899435,7.42837597 25.1899435,13.7622993 C25.1823377,20.093079 20.0368645,25.2232988 13.6872621,25.2308821 L13.6872621,25.2308821 Z M25.1899435,36.6994891 C19.7436009,36.6595093 15.0661954,32.8296322 13.9679275,27.5108364 C21.3629596,27.3551518 27.3205291,21.415243 27.4766766,14.0421328 C33.2622947,15.2027139 37.2216052,20.5494388 36.6307296,26.4039323 C36.0398541,32.2584259 31.0914859,36.7114491 25.1899435,36.6994891 L25.1899435,36.6994891 Z M18.2883347,8.60143709 C17.6530591,8.60143709 17.1380665,9.11490303 17.1380665,9.74829537 L17.1380665,12.0420119 C17.1380665,12.6754043 17.6530591,13.1888702 18.2883347,13.1888702 C18.9236102,13.1888702 19.4386028,12.6754043 19.4386028,12.0420119 L19.4386028,9.74829537 C19.4386028,9.11490303 18.9236102,8.60143709 18.2883347,8.60143709 Z M9.08618953,8.60143709 C8.45091398,8.60143709 7.93592139,9.11490303 7.93592139,9.74829537 L7.93592139,12.0420119 C7.93592139,12.6754043 8.45091398,13.1888702 9.08618953,13.1888702 C9.72146509,13.1888702 10.2364577,12.6754043 10.2364577,12.0420119 L10.2364577,9.74829537 C10.2364577,9.11490303 9.72146509,8.60143709 9.08618953,8.60143709 Z M6.24502722,15.6867275 C5.86083891,15.687238 5.50226938,15.8789531 5.2892665,16.1977406 C5.07626361,16.5165281 5.03695122,16.920297 5.18448,17.2739794 C6.60811766,20.7038108 9.96428694,22.9404459 13.6872621,22.9404459 C17.4102373,22.9404459 20.7664065,20.7038108 22.1900442,17.2739794 C22.3351285,16.9219093 22.2955657,16.5210091 22.0844418,16.2038833 C21.873318,15.8867575 21.5181436,15.6947292 21.1363986,15.691315 C20.6686919,15.6868929 20.2448706,15.965278 20.0643487,16.395486 C18.9998915,18.9578858 16.4965851,20.6326612 13.7148685,20.643449 L13.6872621,20.643449 C10.8968879,20.6432218 8.38118936,18.9677421 7.31247606,16.3977797 C7.13434266,15.9681016 6.71364682,15.6881672 6.24732776,15.6890213 L6.24502722,15.6867275 Z M29.7910161,20.0700199 C29.1557405,20.0700199 28.6407479,20.5834858 28.6407479,21.2168782 L28.6407479,23.5105947 C28.6407479,24.1439871 29.1557405,24.657453 29.7910161,24.657453 C30.4262916,24.657453 30.9412842,24.1439871 30.9412842,23.5105947 L30.9412842,21.2168782 C30.9412842,20.5834858 30.4262916,20.0700199 29.7910161,20.0700199 Z M25.1899435,27.5245987 C22.7493162,27.5169529 20.4068914,28.482362 18.6840269,30.2059533 C18.2348871,30.6543951 18.2354021,31.3809494 18.6851772,31.8287578 C19.1349523,32.2765662 19.8636668,32.2760527 20.3128066,31.827611 C21.5973258,30.5433882 23.3409615,29.8206084 25.1600365,29.8183152 L25.1899435,29.8183152 C27.021487,29.8134295 28.7790459,30.5384824 30.0716815,31.8321984 C30.5230224,32.2668258 31.2404514,32.26061 31.6841487,31.818228 C32.127846,31.375846 32.1340803,30.6605438 31.6981607,30.2105408 C29.9760758,28.4838333 27.6322345,27.5165297 25.1899435,27.5245987 L25.1899435,27.5245987 Z" id="Shape"></path>
            </g>
        </g>
    </g>
</svg>