<?xml version="1.0" encoding="UTF-8"?>
<svg width="34px" height="32px" viewBox="0 0 34 32" version="1.1" xmlns="http://www.w3.org/2000/svg" xmlns:xlink="http://www.w3.org/1999/xlink">
    <title>category3</title>
    <g id="Page-1" stroke="none" stroke-width="1" fill="none" fill-rule="evenodd">
        <g id="Owner-App-Preferences" transform="translate(-287.000000, -249.000000)" fill="#0C2340" fill-rule="nonzero">
            <g id="category3" transform="translate(287.000000, 249.000000)">
                <path d="M26.9899793,14.0021174 L6.99740205,14.0021174 C4.23700316,14.0021174 1.99925773,11.7632716 1.99925773,9.00151525 C1.99925773,6.23975893 4.23700316,4.00091308 6.99740205,4.00091308 L19.1768801,4.00091308 C19.598978,5.19540779 20.7255197,5.99590192 21.991835,6.00115395 L23.9910927,6.00115395 C25.257408,5.99590192 26.3839498,5.19540779 26.8060476,4.00091308 L28.1735399,4.00091308 C29.0159629,3.99506759 29.7643318,3.46151257 30.0448451,2.66675242 C30.2145469,2.1876075 30.716502,1.91204678 31.2116059,2.02623016 C31.7067098,2.14041355 32.0374421,2.60801288 31.9803707,3.11313317 C31.9232992,3.61825346 31.4965818,4.00018754 30.9884948,4.00091308 C30.436415,4.00091308 29.9888659,4.44868225 29.9888659,5.00103351 C29.9888659,5.55338478 30.436415,6.00115395 30.9884948,6.00115395 C32.5151359,6.00747641 33.8028685,4.86533685 33.9796265,3.34820413 C34.1563845,1.83107141 33.1657459,0.423222356 31.6785815,0.078067066 C30.1914171,-0.267088224 28.6824377,0.560625653 28.1735399,2.00067221 L26.8060476,2.00067221 C26.3839498,0.806177501 25.257408,0.00568336407 23.9910927,0.0004313381 L21.991835,0.0004313381 C20.7255197,0.00568336407 19.598978,0.806177501 19.1768801,2.00067221 L6.99740205,2.00067221 C3.13284365,2.00067227 0,5.13505644 0,9.00151525 C0,12.8679741 3.13284365,16.0023582 6.99740205,16.0023583 L26.9899793,16.0023583 C29.7503782,16.0023583 31.9881237,18.2412042 31.9881237,21.0029605 C31.9881237,23.7647168 29.7503782,26.0035627 26.9899793,26.0035627 L9.34852914,26.0035627 L5.23005822,22.7091659 C4.26308572,21.938982 2.9410357,21.7899307 1.82699439,22.3254959 C0.712953094,22.8610611 0.00318739318,23.9868892 0,25.2234687 L0,28.7838975 C0.00318739318,30.020477 0.712953094,31.1463051 1.82699439,31.6818703 C2.9410357,32.2174355 4.26308572,32.0683842 5.23005822,31.2982002 L9.34852914,28.0038035 L26.9899793,28.0038035 C30.8545377,28.0038034 33.9873812,24.8694193 33.9873812,21.0029605 C33.9873812,17.1365017 30.8545377,14.0021175 26.9899793,14.0021174 Z M21.991835,2.00067221 L23.9910927,2.00067221 C24.5431725,2.00067221 24.9907216,2.44844138 24.9907216,3.00079264 C24.9907216,3.55314391 24.5431725,4.00091308 23.9910927,4.00091308 L21.991835,4.00091308 C21.4397552,4.00091308 20.9922061,3.55314391 20.9922061,3.00079264 C20.9922061,2.44844138 21.4397552,2.00067221 21.991835,2.00067221 Z M3.98052214,29.7380124 C3.6066468,29.9976879 3.12207382,30.0361234 2.71197243,29.8386314 C2.30187104,29.6411394 2.02962134,29.2382419 1.99925773,28.7838975 L1.99925773,25.2234687 C2.00113624,24.7553356 2.27012866,24.3294083 2.69190429,24.1267202 C3.11367992,23.9240321 3.61412049,23.9802013 3.98052214,24.2713541 L7.3972536,27.0036831 L3.98052214,29.7380124 Z" id="Shape"></path>
            </g>
        </g>
    </g>
</svg>