<?xml version="1.0" encoding="UTF-8"?>
<svg width="44px" height="43px" viewBox="0 0 44 43" version="1.1" xmlns="http://www.w3.org/2000/svg" xmlns:xlink="http://www.w3.org/1999/xlink">
    <title>category9</title>
    <g id="Page-1" stroke="none" stroke-width="1" fill="none" fill-rule="evenodd" stroke-linecap="round" stroke-linejoin="round">
        <g id="Owner-App-Preferences" transform="translate(-282.000000, -570.000000)" stroke="#000000">
            <g id="category9" transform="translate(284.000000, 572.000000)">
                <path d="M14.6666667,20 L8,20 C5.05448133,20 2.66666667,17.6121854 2.66666667,14.6666668 L2.66666667,12 C2.66666667,9.05448142 5.05448133,6.66666675 8,6.66666675 L21.6,6.66666675 C23.4505798,6.66564889 25.1689134,5.70728275 26.1422222,4.13333342 C26.4589426,3.61431607 26.7301757,3.06887581 26.9528889,2.5031112 C27.5651037,0.989936179 29.0343354,-0.000335836549 30.6666667,0 C33.3333333,0 34.6666667,3.12533342 34.6666667,5.33333342 C34.6666667,5.68695541 34.8071425,6.02609396 35.057191,6.27614246 C35.3072395,6.52619096 35.646378,6.66666675 36,6.66666675 L37.3333333,6.66666675 C38.8060927,6.66666675 40,7.86057409 40,9.33333342 C40,10.8060928 38.8060927,12 37.3333333,12 L33.3333333,12 L32,13.3333334" id="Path" stroke-width="3"></path>
                <path d="M0,2.66666675 C0,2.66666675 0,8.44444453 4.50311111,7.97333342" id="Path" stroke-width="3"></path>
                <line x1="5.33333333" y1="19.2871112" x2="5.33333333" y2="28.0017779" id="Path" stroke-width="3"></line>
                <line x1="10.6666667" y1="20.0000001" x2="10.6666667" y2="28.0017779" id="Path" stroke-width="3"></line>
                <line x1="29.3333333" y1="12.0017779" x2="23.7422222" y2="6.21688897" id="Path" stroke-width="3"></line>
                <circle id="Oval" stroke-width="3" cx="26.6666667" cy="26.6684445" r="9.33333333"></circle>
                <line x1="40" y1="40.0017779" x2="33.2657778" y2="33.2675556" id="Path" stroke-width="1.5"></line>
            </g>
        </g>
    </g>
</svg>