<?xml version="1.0" encoding="UTF-8"?>
<svg width="43px" height="30px" viewBox="0 0 43 30" version="1.1" xmlns="http://www.w3.org/2000/svg" xmlns:xlink="http://www.w3.org/1999/xlink">
    <title>category1</title>
    <g id="Page-1" stroke="none" stroke-width="1" fill="none" fill-rule="evenodd">
        <g id="Owner-App-Preferences" transform="translate(-48.000000, -248.000000)" fill="#0C2340" fill-rule="nonzero">
            <g id="category1" transform="translate(48.000000, 248.000000)">
                <path d="M38.5126051,14.5743669 C38.1634072,13.893 37.6104434,13.3343539 36.9288149,12.9743012 C37.585775,12.1180421 37.9427865,11.0737122 37.9458815,9.99917912 C37.9458815,7.23764203 35.6804276,4.9989739 32.8858487,4.9989739 C32.4901169,4.99889706 32.0958678,5.0467559 31.7119211,5.14147975 C29.9047899,2.71105575 26.6201132,1.86671982 23.8435702,3.11889674 C22.199102,0.850587616 19.4120985,-0.322553571 16.6175138,0.0772126235 C13.8229291,0.476978818 11.4869981,2.38295736 10.5609842,5.01897472 C9.14716963,4.89555124 7.74589583,5.36456763 6.69899874,6.31160897 C5.65210165,7.25865031 5.05583957,8.59663966 5.05566858,9.99917912 C5.05730645,11.0731392 5.41252267,12.1174127 6.06767513,12.9743012 C5.38622551,13.3334337 4.83323306,13.8912359 4.48388488,14.5718668 L0.562359496,22.3371855 C-0.264823203,23.9786686 -0.174610706,25.9260506 0.800877846,27.4859881 C1.7763664,29.0459255 3.49852953,29.996776 5.35421051,30 L37.6473395,30 C39.5024429,29.9953847 41.2235578,29.0442652 42.1987443,27.4848108 C43.1739308,25.9253564 43.2648556,23.9787805 42.4391905,22.3371855 L38.5126051,14.5743669 Z M11.0239772,7.67408369 C11.380274,7.81105254 11.7801431,7.7814461 12.1118071,7.59354039 C12.443471,7.40563469 12.6713479,7.07958881 12.7317383,6.70654398 C13.0730571,4.54058545 14.8093738,2.8509656 17.0062344,2.54700704 C19.2030949,2.24304847 21.3422438,3.39645726 22.27243,5.3864898 C22.4367346,5.7327508 22.7523995,5.98563867 23.1292084,6.0728786 C23.5060173,6.16011854 23.9025073,6.07211093 24.2053625,5.83400817 C25.1246019,5.1438732 26.3084118,4.89707225 27.4314356,5.16143575 C28.5544594,5.42579925 29.4985226,6.17350854 30.0041601,7.1990642 C30.1481247,7.51110845 30.4155001,7.75100233 30.74367,7.86256558 C31.0718399,7.97412883 31.4319805,7.94756261 31.7397513,7.78908841 C32.6737936,7.30123598 33.8162643,7.43827256 34.6050717,8.13277662 C35.3938791,8.82728069 35.6629296,9.93301538 35.2798512,10.905963 C34.8967727,11.8789105 33.9422276,12.5142043 32.8858487,12.4992817 L10.1157013,12.4992817 C9.09488009,12.5078249 8.16887847,11.909284 7.76775247,10.9816349 C7.36662647,10.0539858 7.56897708,8.97900206 8.28082812,8.25593042 C8.99267916,7.53285878 10.0745428,7.30338572 11.0239772,7.67408369 L11.0239772,7.67408369 Z M37.6473395,27.4998974 L5.35421051,27.4998974 C4.37502736,27.4971409 3.46667412,26.9950169 2.95187716,26.1719237 C2.4370802,25.3488306 2.3888016,24.3214251 2.82419414,23.4547314 L6.75330957,15.6894127 C6.96778228,15.2664692 7.40549315,14.9993843 7.88422689,14.9993843 L35.1173232,14.9993843 C35.5960569,14.9993843 36.0337678,15.2664692 36.2482405,15.6894127 L40.1773559,23.4547314 C40.6127484,24.3214251 40.5644698,25.3488306 40.0496729,26.1719237 C39.5348759,26.9950169 38.6265227,27.4971409 37.6473395,27.4998974 Z M32.5164663,19.6345746 L30.8795457,21.2496409 L32.5164663,22.8647072 C33.0111067,23.3534992 33.0111067,24.1459877 32.5164663,24.6347797 C32.0218258,25.1235718 31.2198552,25.1235718 30.7252147,24.6347798 L28.5671108,22.4996922 L14.4344393,22.4996922 L12.2763353,24.6347798 C11.7816948,25.1235718 10.9797242,25.1235718 10.4850838,24.6347798 C9.9904433,24.1459877 9.99044329,23.3534992 10.4850837,22.8647072 L12.1220043,21.2496409 L10.4850837,19.6345746 C9.99044329,19.1457825 9.9904433,18.353294 10.4850838,17.864502 C10.9797242,17.3757099 11.7816948,17.3757099 12.2763353,17.8645019 L14.4344393,19.9995896 L28.5671108,19.9995896 L30.7252147,17.8645019 C31.2198552,17.3757099 32.0218258,17.3757099 32.5164663,17.864502 C33.0111067,18.353294 33.0111067,19.1457825 32.5164663,19.6345746 L32.5164663,19.6345746 Z" id="Shape"></path>
            </g>
        </g>
    </g>
</svg>